<svg width="113" height="40" viewBox="0 0 113 40" fill="none" xmlns="http://www.w3.org/2000/svg">
<g clip-path="url(#clip0_10_93)">
<path d="M13.2389 4.28577H27.7424C31.0081 4.28577 33.9136 6.20392 34.9942 9.06925L37.8116 16.5477C39.6686 17.262 40.9813 18.9658 40.9813 20.9524V26.9048C40.9813 28.6682 39.9487 30.2084 38.4199 31.0268V35.2381C38.4199 36.5551 37.2753 37.6191 35.8586 37.6191H33.2973C31.8805 37.6191 30.7359 36.5551 30.7359 35.2381V31.6667H10.2453V35.2381C10.2453 36.5551 9.10072 37.6191 7.68399 37.6191H5.12266C3.70832 37.6191 2.56133 36.5551 2.56133 35.2381V31.0268C1.03013 30.2084 0 28.6682 0 26.9048V20.9524C0 18.9658 1.30948 17.262 3.17044 16.5477L5.98711 9.06925C7.06527 6.20392 9.97317 4.28577 13.2389 4.28577ZM13.2389 9.04767C12.1503 9.04767 11.1818 9.68755 10.8216 10.6399L8.73253 16.1905H32.2487L30.1596 10.6399C29.7995 9.68755 28.831 9.04767 27.7424 9.04767H13.2389ZM16.6486 22.1429C15.9443 22.1429 15.368 22.6786 15.368 23.3334V25.7143C15.368 26.3691 15.9443 26.9048 16.6486 26.9048H24.3326C25.037 26.9048 25.6133 26.3691 25.6133 25.7143V23.3334C25.6133 22.6786 25.037 22.1429 24.3326 22.1429H16.6486ZM5.76299 24.5239H8.32432C9.38887 24.5239 10.2453 23.7277 10.2453 22.7381C10.2453 21.7486 9.38887 20.9524 8.32432 20.9524H5.76299C4.70244 20.9524 3.84199 21.7486 3.84199 22.7381C3.84199 23.7277 4.70244 24.5239 5.76299 24.5239ZM32.6569 20.9524C31.5924 20.9524 30.7359 21.7486 30.7359 22.7381C30.7359 23.7277 31.5924 24.5239 32.6569 24.5239H35.2183C36.2828 24.5239 37.1393 23.7277 37.1393 22.7381C37.1393 21.7486 36.2828 20.9524 35.2183 20.9524H32.6569Z" fill="#EB1D36"/>
</g>
<rect x="22.5404" width="28.6869" height="40" fill="white"/>
<path d="M30.7 27.9C29.2867 27.9 28.0733 27.6 27.06 27C26.0467 26.3866 25.2667 25.54 24.72 24.46C24.1733 23.3666 23.9 22.1066 23.9 20.68C23.9 19.2533 24.1733 17.9933 24.72 16.9C25.2667 15.8066 26.0467 14.9533 27.06 14.34C28.0733 13.7266 29.2867 13.42 30.7 13.42C32.38 13.42 33.7533 13.84 34.82 14.68C35.9 15.5066 36.5733 16.6733 36.84 18.18H34.02C33.8467 17.42 33.4733 16.8266 32.9 16.4C32.34 15.96 31.5933 15.74 30.66 15.74C29.3667 15.74 28.3533 16.18 27.62 17.06C26.8867 17.94 26.52 19.1466 26.52 20.68C26.52 22.2133 26.8867 23.42 27.62 24.3C28.3533 25.1666 29.3667 25.6 30.66 25.6C31.5933 25.6 32.34 25.4 32.9 25C33.4733 24.5866 33.8467 24.02 34.02 23.3H36.84C36.5733 24.74 35.9 25.8666 34.82 26.68C33.7533 27.4933 32.38 27.9 30.7 27.9ZM42.4661 27.9C41.6128 27.9 40.9128 27.7666 40.3661 27.5C39.8194 27.22 39.4128 26.8533 39.1461 26.4C38.8794 25.9466 38.7461 25.4466 38.7461 24.9C38.7461 23.98 39.1061 23.2333 39.8261 22.66C40.5461 22.0866 41.6261 21.8 43.0661 21.8H45.5861V21.56C45.5861 20.88 45.3928 20.38 45.0061 20.06C44.6194 19.74 44.1394 19.58 43.5661 19.58C43.0461 19.58 42.5928 19.7066 42.2061 19.96C41.8194 20.2 41.5794 20.56 41.4861 21.04H38.9861C39.0528 20.32 39.2928 19.6933 39.7061 19.16C40.1328 18.6266 40.6794 18.22 41.3461 17.94C42.0128 17.6466 42.7594 17.5 43.5861 17.5C44.9994 17.5 46.1128 17.8533 46.9261 18.56C47.7394 19.2666 48.1461 20.2666 48.1461 21.56V27.66H45.9661L45.7261 26.06C45.4328 26.5933 45.0194 27.0333 44.4861 27.38C43.9661 27.7266 43.2928 27.9 42.4661 27.9ZM43.0461 25.9C43.7794 25.9 44.3461 25.66 44.7461 25.18C45.1594 24.7 45.4194 24.1066 45.5261 23.4H43.3461C42.6661 23.4 42.1794 23.5266 41.8861 23.78C41.5928 24.02 41.4461 24.32 41.4461 24.68C41.4461 25.0666 41.5928 25.3666 41.8861 25.58C42.1794 25.7933 42.5661 25.9 43.0461 25.9ZM50.5891 27.66V17.74H52.8691L53.1091 19.6C53.4691 18.96 53.9557 18.4533 54.5691 18.08C55.1957 17.6933 55.9291 17.5 56.7691 17.5V20.2H56.0491C55.4891 20.2 54.9891 20.2866 54.5491 20.46C54.1091 20.6333 53.7624 20.9333 53.5091 21.36C53.2691 21.7866 53.1491 22.38 53.1491 23.14V27.66H50.5891ZM62.6188 27.9C61.7388 27.9 60.9654 27.76 60.2988 27.48C59.6321 27.1866 59.0988 26.7866 58.6988 26.28C58.2988 25.7733 58.0588 25.1866 57.9788 24.52H60.5588C60.6388 24.9066 60.8521 25.24 61.1988 25.52C61.5588 25.7866 62.0188 25.92 62.5788 25.92C63.1388 25.92 63.5454 25.8066 63.7988 25.58C64.0654 25.3533 64.1988 25.0933 64.1988 24.8C64.1988 24.3733 64.0121 24.0866 63.6388 23.94C63.2654 23.78 62.7454 23.6266 62.0788 23.48C61.6521 23.3866 61.2188 23.2733 60.7788 23.14C60.3388 23.0066 59.9321 22.84 59.5588 22.64C59.1988 22.4266 58.9054 22.16 58.6788 21.84C58.4521 21.5066 58.3388 21.1 58.3388 20.62C58.3388 19.74 58.6854 19 59.3788 18.4C60.0854 17.8 61.0721 17.5 62.3388 17.5C63.5121 17.5 64.4454 17.7733 65.1388 18.32C65.8454 18.8666 66.2654 19.62 66.3988 20.58H63.9788C63.8321 19.8466 63.2788 19.48 62.3188 19.48C61.8388 19.48 61.4654 19.5733 61.1988 19.76C60.9454 19.9466 60.8188 20.18 60.8188 20.46C60.8188 20.7533 61.0121 20.9866 61.3988 21.16C61.7854 21.3333 62.2988 21.4933 62.9388 21.64C63.6321 21.8 64.2654 21.98 64.8388 22.18C65.4254 22.3666 65.8921 22.6533 66.2388 23.04C66.5854 23.4133 66.7588 23.9533 66.7588 24.66C66.7721 25.2733 66.6121 25.8266 66.2788 26.32C65.9454 26.8133 65.4654 27.2 64.8388 27.48C64.2121 27.76 63.4721 27.9 62.6188 27.9ZM73.8466 27.9C72.8466 27.9 71.9599 27.6866 71.1866 27.26C70.4132 26.8333 69.8066 26.2333 69.3666 25.46C68.9266 24.6866 68.7066 23.7933 68.7066 22.78C68.7066 21.7533 68.9199 20.84 69.3466 20.04C69.7866 19.24 70.3866 18.62 71.1466 18.18C71.9199 17.7266 72.8266 17.5 73.8666 17.5C74.8399 17.5 75.6999 17.7133 76.4466 18.14C77.1932 18.5666 77.7732 19.1533 78.1866 19.9C78.6132 20.6333 78.8266 21.4533 78.8266 22.36C78.8266 22.5066 78.8199 22.66 78.8066 22.82C78.8066 22.98 78.7999 23.1466 78.7866 23.32H71.2466C71.2999 24.0933 71.5666 24.7 72.0466 25.14C72.5399 25.58 73.1332 25.8 73.8266 25.8C74.3466 25.8 74.7799 25.6866 75.1266 25.46C75.4866 25.22 75.7532 24.9133 75.9266 24.54H78.5266C78.3399 25.1666 78.0266 25.74 77.5866 26.26C77.1599 26.7666 76.6266 27.1666 75.9866 27.46C75.3599 27.7533 74.6466 27.9 73.8466 27.9ZM73.8666 19.58C73.2399 19.58 72.6866 19.76 72.2066 20.12C71.7266 20.4666 71.4199 21 71.2866 21.72H76.2266C76.1866 21.0666 75.9466 20.5466 75.5066 20.16C75.0666 19.7733 74.5199 19.58 73.8666 19.58Z" fill="black"/>
<path d="M82.9197 27.66L80.0197 17.74H82.5597L84.2797 24.88L86.2797 17.74H89.1197L91.1197 24.88L92.8597 17.74H95.3997L92.4797 27.66H89.8197L87.6997 20.24L85.5797 27.66H82.9197ZM99.927 27.9C99.0737 27.9 98.3737 27.7666 97.827 27.5C97.2804 27.22 96.8737 26.8533 96.607 26.4C96.3404 25.9466 96.207 25.4466 96.207 24.9C96.207 23.98 96.567 23.2333 97.287 22.66C98.007 22.0866 99.087 21.8 100.527 21.8H103.047V21.56C103.047 20.88 102.854 20.38 102.467 20.06C102.08 19.74 101.6 19.58 101.027 19.58C100.507 19.58 100.054 19.7066 99.667 19.96C99.2804 20.2 99.0404 20.56 98.947 21.04H96.447C96.5137 20.32 96.7537 19.6933 97.167 19.16C97.5937 18.6266 98.1404 18.22 98.807 17.94C99.4737 17.6466 100.22 17.5 101.047 17.5C102.46 17.5 103.574 17.8533 104.387 18.56C105.2 19.2666 105.607 20.2666 105.607 21.56V27.66H103.427L103.187 26.06C102.894 26.5933 102.48 27.0333 101.947 27.38C101.427 27.7266 100.754 27.9 99.927 27.9ZM100.507 25.9C101.24 25.9 101.807 25.66 102.207 25.18C102.62 24.7 102.88 24.1066 102.987 23.4H100.807C100.127 23.4 99.6404 23.5266 99.347 23.78C99.0537 24.02 98.907 24.32 98.907 24.68C98.907 25.0666 99.0537 25.3666 99.347 25.58C99.6404 25.7933 100.027 25.9 100.507 25.9Z" fill="#EB1D36"/>
<defs>
<clipPath id="clip0_10_93">
<rect width="40.9813" height="38.0952" fill="white" transform="translate(0 1.90479)"/>
</clipPath>
</defs>
</svg>
