<svg width="293" height="113" viewBox="0 0 293 113" fill="none" xmlns="http://www.w3.org/2000/svg">
<g clip-path="url(#clip0_164_146)">
<path d="M29.9855 12.0685H62.8353C70.232 12.0685 76.8128 17.4699 79.2603 25.5386L85.6417 46.5976C89.8476 48.609 92.8208 53.407 92.8208 59.0012V75.7629C92.8208 80.7286 90.4822 85.0657 87.0195 87.3704V99.2293C87.0195 102.938 84.427 105.934 81.2182 105.934H75.4169C72.2081 105.934 69.6156 102.938 69.6156 99.2293V89.1723H23.2052V99.2293C23.2052 102.938 20.6127 105.934 17.4039 105.934H11.6026C8.39919 105.934 5.8013 102.938 5.8013 99.2293V87.3704C2.33321 85.0657 0 80.7286 0 75.7629V59.0012C0 53.407 2.96591 48.609 7.18092 46.5976L13.5605 25.5386C16.0025 17.4699 22.5888 12.0685 29.9855 12.0685ZM29.9855 25.4778C27.5199 25.4778 25.3263 27.2797 24.5105 29.9616L19.7788 45.5919H73.042L68.3103 29.9616C67.4945 27.2797 65.3009 25.4778 62.8353 25.4778H29.9855ZM37.7085 62.3536C36.1131 62.3536 34.8078 63.8621 34.8078 65.7059V72.4106C34.8078 74.2544 36.1131 75.7629 37.7085 75.7629H55.1124C56.7077 75.7629 58.013 74.2544 58.013 72.4106V65.7059C58.013 63.8621 56.7077 62.3536 55.1124 62.3536H37.7085ZM13.0529 69.0582H18.8542C21.2654 69.0582 23.2052 66.8164 23.2052 64.0297C23.2052 61.2431 21.2654 59.0012 18.8542 59.0012H13.0529C10.6508 59.0012 8.70195 61.2431 8.70195 64.0297C8.70195 66.8164 10.6508 69.0582 13.0529 69.0582ZM73.9666 59.0012C71.5554 59.0012 69.6156 61.2431 69.6156 64.0297C69.6156 66.8164 71.5554 69.0582 73.9666 69.0582H79.7679C82.179 69.0582 84.1189 66.8164 84.1189 64.0297C84.1189 61.2431 82.179 59.0012 79.7679 59.0012H73.9666Z" fill="#EB1D36"/>
</g>
<rect x="51.0532" width="64.9746" height="112.639" fill="white"/>
<path d="M80.865 73.588C77.4023 73.588 74.4297 72.853 71.947 71.383C69.4643 69.8803 67.5533 67.806 66.214 65.16C64.8747 62.4813 64.205 59.3943 64.205 55.899C64.205 52.4037 64.8747 49.3167 66.214 46.638C67.5533 43.9593 69.4643 41.8687 71.947 40.366C74.4297 38.8633 77.4023 38.112 80.865 38.112C84.981 38.112 88.3457 39.141 90.959 41.199C93.605 43.2243 95.2547 46.0827 95.908 49.774H88.999C88.5743 47.912 87.6597 46.4583 86.255 45.413C84.883 44.335 83.0537 43.796 80.767 43.796C77.5983 43.796 75.1157 44.874 73.319 47.03C71.5223 49.186 70.624 52.1423 70.624 55.899C70.624 59.6557 71.5223 62.612 73.319 64.768C75.1157 66.8913 77.5983 67.953 80.767 67.953C83.0537 67.953 84.883 67.463 86.255 66.483C87.6597 65.4703 88.5743 64.082 88.999 62.318H95.908C95.2547 65.846 93.605 68.6063 90.959 70.599C88.3457 72.5917 84.981 73.588 80.865 73.588ZM109.692 73.588C107.601 73.588 105.886 73.2613 104.547 72.608C103.208 71.922 102.211 71.0237 101.558 69.913C100.905 68.8023 100.578 67.5773 100.578 66.238C100.578 63.984 101.46 62.1547 103.224 60.75C104.988 59.3453 107.634 58.643 111.162 58.643H117.336V58.055C117.336 56.389 116.862 55.164 115.915 54.38C114.968 53.596 113.792 53.204 112.387 53.204C111.113 53.204 110.002 53.5143 109.055 54.135C108.108 54.723 107.52 55.605 107.291 56.781H101.166C101.329 55.017 101.917 53.4817 102.93 52.175C103.975 50.8683 105.315 49.872 106.948 49.186C108.581 48.4673 110.411 48.108 112.436 48.108C115.899 48.108 118.626 48.9737 120.619 50.705C122.612 52.4363 123.608 54.8863 123.608 58.055V73H118.267L117.679 69.08C116.96 70.3867 115.948 71.4647 114.641 72.314C113.367 73.1633 111.717 73.588 109.692 73.588ZM111.113 68.688C112.91 68.688 114.298 68.1 115.278 66.924C116.291 65.748 116.928 64.2943 117.189 62.563H111.848C110.182 62.563 108.99 62.8733 108.271 63.494C107.552 64.082 107.193 64.817 107.193 65.699C107.193 66.6463 107.552 67.3813 108.271 67.904C108.99 68.4267 109.937 68.688 111.113 68.688ZM129.593 73V48.696H135.179L135.767 53.253C136.649 51.685 137.842 50.4437 139.344 49.529C140.88 48.5817 142.676 48.108 144.734 48.108V54.723H142.97C141.598 54.723 140.373 54.9353 139.295 55.36C138.217 55.7847 137.368 56.5197 136.747 57.565C136.159 58.6103 135.865 60.064 135.865 61.926V73H129.593ZM159.066 73.588C156.91 73.588 155.015 73.245 153.382 72.559C151.749 71.8403 150.442 70.8603 149.462 69.619C148.482 68.3777 147.894 66.9403 147.698 65.307H154.019C154.215 66.2543 154.738 67.071 155.587 67.757C156.469 68.4103 157.596 68.737 158.968 68.737C160.34 68.737 161.336 68.4593 161.957 67.904C162.61 67.3487 162.937 66.7117 162.937 65.993C162.937 64.9477 162.48 64.2453 161.565 63.886C160.65 63.494 159.376 63.1183 157.743 62.759C156.698 62.5303 155.636 62.2527 154.558 61.926C153.48 61.5993 152.484 61.191 151.569 60.701C150.687 60.1783 149.968 59.525 149.413 58.741C148.858 57.9243 148.58 56.928 148.58 55.752C148.58 53.596 149.429 51.783 151.128 50.313C152.859 48.843 155.277 48.108 158.38 48.108C161.255 48.108 163.541 48.7777 165.24 50.117C166.971 51.4563 168 53.302 168.327 55.654H162.398C162.039 53.8573 160.683 52.959 158.331 52.959C157.155 52.959 156.24 53.1877 155.587 53.645C154.966 54.1023 154.656 54.674 154.656 55.36C154.656 56.0787 155.13 56.6503 156.077 57.075C157.024 57.4997 158.282 57.8917 159.85 58.251C161.549 58.643 163.1 59.084 164.505 59.574C165.942 60.0313 167.086 60.7337 167.935 61.681C168.784 62.5957 169.209 63.9187 169.209 65.65C169.242 67.1527 168.85 68.5083 168.033 69.717C167.216 70.9257 166.04 71.873 164.505 72.559C162.97 73.245 161.157 73.588 159.066 73.588ZM186.574 73.588C184.124 73.588 181.952 73.0653 180.057 72.02C178.162 70.9747 176.676 69.5047 175.598 67.61C174.52 65.7153 173.981 63.5267 173.981 61.044C173.981 58.5287 174.504 56.291 175.549 54.331C176.627 52.371 178.097 50.852 179.959 49.774C181.854 48.6633 184.075 48.108 186.623 48.108C189.008 48.108 191.115 48.6307 192.944 49.676C194.773 50.7213 196.194 52.1587 197.207 53.988C198.252 55.7847 198.775 57.7937 198.775 60.015C198.775 60.3743 198.759 60.75 198.726 61.142C198.726 61.534 198.71 61.9423 198.677 62.367H180.204C180.335 64.2617 180.988 65.748 182.164 66.826C183.373 67.904 184.826 68.443 186.525 68.443C187.799 68.443 188.861 68.1653 189.71 67.61C190.592 67.022 191.245 66.2707 191.67 65.356H198.04C197.583 66.8913 196.815 68.296 195.737 69.57C194.692 70.8113 193.385 71.7913 191.817 72.51C190.282 73.2287 188.534 73.588 186.574 73.588ZM186.623 53.204C185.088 53.204 183.732 53.645 182.556 54.527C181.38 55.3763 180.629 56.683 180.302 58.447H192.405C192.307 56.8463 191.719 55.5723 190.641 54.625C189.563 53.6777 188.224 53.204 186.623 53.204Z" fill="black"/>
<path d="M208.803 73L201.698 48.696H207.921L212.135 66.189L217.035 48.696H223.993L228.893 66.189L233.156 48.696H239.379L232.225 73H225.708L220.514 54.821L215.32 73H208.803ZM250.471 73.588C248.381 73.588 246.666 73.2613 245.326 72.608C243.987 71.922 242.991 71.0237 242.337 69.913C241.684 68.8023 241.357 67.5773 241.357 66.238C241.357 63.984 242.239 62.1547 244.003 60.75C245.767 59.3453 248.413 58.643 251.941 58.643H258.115V58.055C258.115 56.389 257.642 55.164 256.694 54.38C255.747 53.596 254.571 53.204 253.166 53.204C251.892 53.204 250.782 53.5143 249.834 54.135C248.887 54.723 248.299 55.605 248.07 56.781H241.945C242.109 55.017 242.697 53.4817 243.709 52.175C244.755 50.8683 246.094 49.872 247.727 49.186C249.361 48.4673 251.19 48.108 253.215 48.108C256.678 48.108 259.406 48.9737 261.398 50.705C263.391 52.4363 264.387 54.8863 264.387 58.055V73H259.046L258.458 69.08C257.74 70.3867 256.727 71.4647 255.42 72.314C254.146 73.1633 252.497 73.588 250.471 73.588ZM251.892 68.688C253.689 68.688 255.077 68.1 256.057 66.924C257.07 65.748 257.707 64.2943 257.968 62.563H252.627C250.961 62.563 249.769 62.8733 249.05 63.494C248.332 64.082 247.972 64.817 247.972 65.699C247.972 66.6463 248.332 67.3813 249.05 67.904C249.769 68.4267 250.716 68.688 251.892 68.688Z" fill="#EB1D36"/>
<path d="M83.36 106V92H88.5C89.62 92 90.54 92.1933 91.26 92.58C91.9933 92.9533 92.54 93.4667 92.9 94.12C93.26 94.76 93.44 95.4733 93.44 96.26C93.44 97.1133 93.2133 97.8933 92.76 98.6C92.32 99.3067 91.6267 99.82 90.68 100.14L93.58 106H90.64L88.04 100.48H85.92V106H83.36ZM85.92 98.6H88.34C89.1933 98.6 89.82 98.3933 90.22 97.98C90.62 97.5667 90.82 97.02 90.82 96.34C90.82 95.6733 90.62 95.14 90.22 94.74C89.8333 94.34 89.2 94.14 88.32 94.14H85.92V98.6ZM99.9755 106.24C98.9755 106.24 98.0888 106.027 97.3155 105.6C96.5421 105.173 95.9355 104.573 95.4955 103.8C95.0555 103.027 94.8355 102.133 94.8355 101.12C94.8355 100.093 95.0488 99.18 95.4755 98.38C95.9155 97.58 96.5155 96.96 97.2755 96.52C98.0488 96.0667 98.9555 95.84 99.9955 95.84C100.969 95.84 101.829 96.0533 102.575 96.48C103.322 96.9067 103.902 97.4933 104.315 98.24C104.742 98.9733 104.955 99.7933 104.955 100.7C104.955 100.847 104.949 101 104.935 101.16C104.935 101.32 104.929 101.487 104.915 101.66H97.3755C97.4288 102.433 97.6955 103.04 98.1755 103.48C98.6688 103.92 99.2621 104.14 99.9555 104.14C100.475 104.14 100.909 104.027 101.255 103.8C101.615 103.56 101.882 103.253 102.055 102.88H104.655C104.469 103.507 104.155 104.08 103.715 104.6C103.289 105.107 102.755 105.507 102.115 105.8C101.489 106.093 100.775 106.24 99.9755 106.24ZM99.9955 97.92C99.3688 97.92 98.8155 98.1 98.3355 98.46C97.8555 98.8067 97.5488 99.34 97.4155 100.06H102.355C102.315 99.4067 102.075 98.8867 101.635 98.5C101.195 98.1133 100.649 97.92 99.9955 97.92ZM107.109 106V96.08H109.369L109.569 97.76C109.875 97.1733 110.315 96.7067 110.889 96.36C111.475 96.0133 112.162 95.84 112.949 95.84C114.175 95.84 115.129 96.2267 115.809 97C116.489 97.7733 116.829 98.9067 116.829 100.4V106H114.269V100.64C114.269 99.7867 114.095 99.1333 113.749 98.68C113.402 98.2267 112.862 98 112.129 98C111.409 98 110.815 98.2533 110.349 98.76C109.895 99.2667 109.669 99.9733 109.669 100.88V106H107.109ZM123.697 106C122.657 106 121.823 105.747 121.197 105.24C120.57 104.733 120.257 103.833 120.257 102.54V98.22H118.557V96.08H120.257L120.557 93.42H122.817V96.08H125.497V98.22H122.817V102.56C122.817 103.04 122.917 103.373 123.117 103.56C123.33 103.733 123.69 103.82 124.197 103.82H125.437V106H123.697ZM131.115 106.24C130.261 106.24 129.561 106.107 129.015 105.84C128.468 105.56 128.061 105.193 127.795 104.74C127.528 104.287 127.395 103.787 127.395 103.24C127.395 102.32 127.755 101.573 128.475 101C129.195 100.427 130.275 100.14 131.715 100.14H134.235V99.9C134.235 99.22 134.041 98.72 133.655 98.4C133.268 98.08 132.788 97.92 132.215 97.92C131.695 97.92 131.241 98.0467 130.855 98.3C130.468 98.54 130.228 98.9 130.135 99.38H127.635C127.701 98.66 127.941 98.0333 128.355 97.5C128.781 96.9667 129.328 96.56 129.995 96.28C130.661 95.9867 131.408 95.84 132.235 95.84C133.648 95.84 134.761 96.1933 135.575 96.9C136.388 97.6067 136.795 98.6067 136.795 99.9V106H134.615L134.375 104.4C134.081 104.933 133.668 105.373 133.135 105.72C132.615 106.067 131.941 106.24 131.115 106.24ZM131.695 104.24C132.428 104.24 132.995 104 133.395 103.52C133.808 103.04 134.068 102.447 134.175 101.74H131.995C131.315 101.74 130.828 101.867 130.535 102.12C130.241 102.36 130.095 102.66 130.095 103.02C130.095 103.407 130.241 103.707 130.535 103.92C130.828 104.133 131.215 104.24 131.695 104.24ZM139.238 106V91.6H141.798V106H139.238ZM155.579 106.24C154.166 106.24 152.952 105.94 151.939 105.34C150.926 104.727 150.146 103.88 149.599 102.8C149.052 101.707 148.779 100.447 148.779 99.02C148.779 97.5933 149.052 96.3333 149.599 95.24C150.146 94.1467 150.926 93.2933 151.939 92.68C152.952 92.0667 154.166 91.76 155.579 91.76C157.259 91.76 158.632 92.18 159.699 93.02C160.779 93.8467 161.452 95.0133 161.719 96.52H158.899C158.726 95.76 158.352 95.1667 157.779 94.74C157.219 94.3 156.472 94.08 155.539 94.08C154.246 94.08 153.232 94.52 152.499 95.4C151.766 96.28 151.399 97.4867 151.399 99.02C151.399 100.553 151.766 101.76 152.499 102.64C153.232 103.507 154.246 103.94 155.539 103.94C156.472 103.94 157.219 103.74 157.779 103.34C158.352 102.927 158.726 102.36 158.899 101.64H161.719C161.452 103.08 160.779 104.207 159.699 105.02C158.632 105.833 157.259 106.24 155.579 106.24ZM167.345 106.24C166.492 106.24 165.792 106.107 165.245 105.84C164.698 105.56 164.292 105.193 164.025 104.74C163.758 104.287 163.625 103.787 163.625 103.24C163.625 102.32 163.985 101.573 164.705 101C165.425 100.427 166.505 100.14 167.945 100.14H170.465V99.9C170.465 99.22 170.272 98.72 169.885 98.4C169.498 98.08 169.018 97.92 168.445 97.92C167.925 97.92 167.472 98.0467 167.085 98.3C166.698 98.54 166.458 98.9 166.365 99.38H163.865C163.932 98.66 164.172 98.0333 164.585 97.5C165.012 96.9667 165.558 96.56 166.225 96.28C166.892 95.9867 167.638 95.84 168.465 95.84C169.878 95.84 170.992 96.1933 171.805 96.9C172.618 97.6067 173.025 98.6067 173.025 99.9V106H170.845L170.605 104.4C170.312 104.933 169.898 105.373 169.365 105.72C168.845 106.067 168.172 106.24 167.345 106.24ZM167.925 104.24C168.658 104.24 169.225 104 169.625 103.52C170.038 103.04 170.298 102.447 170.405 101.74H168.225C167.545 101.74 167.058 101.867 166.765 102.12C166.472 102.36 166.325 102.66 166.325 103.02C166.325 103.407 166.472 103.707 166.765 103.92C167.058 104.133 167.445 104.24 167.925 104.24ZM175.468 106V96.08H177.748L177.988 97.94C178.348 97.3 178.835 96.7933 179.448 96.42C180.075 96.0333 180.808 95.84 181.648 95.84V98.54H180.928C180.368 98.54 179.868 98.6267 179.428 98.8C178.988 98.9733 178.641 99.2733 178.388 99.7C178.148 100.127 178.028 100.72 178.028 101.48V106H175.468ZM192.923 106.24C191.963 106.24 191.097 106.02 190.323 105.58C189.563 105.14 188.957 104.533 188.503 103.76C188.063 102.973 187.843 102.067 187.843 101.04C187.843 100.013 188.07 99.1133 188.523 98.34C188.977 97.5533 189.583 96.94 190.343 96.5C191.117 96.06 191.983 95.84 192.943 95.84C193.89 95.84 194.743 96.06 195.503 96.5C196.277 96.94 196.883 97.5533 197.323 98.34C197.777 99.1133 198.003 100.013 198.003 101.04C198.003 102.067 197.777 102.973 197.323 103.76C196.883 104.533 196.277 105.14 195.503 105.58C194.73 106.02 193.87 106.24 192.923 106.24ZM192.923 104.02C193.59 104.02 194.17 103.773 194.663 103.28C195.157 102.773 195.403 102.027 195.403 101.04C195.403 100.053 195.157 99.3133 194.663 98.82C194.17 98.3133 193.597 98.06 192.943 98.06C192.263 98.06 191.677 98.3133 191.183 98.82C190.703 99.3133 190.463 100.053 190.463 101.04C190.463 102.027 190.703 102.773 191.183 103.28C191.677 103.773 192.257 104.02 192.923 104.02ZM200.292 106V96.08H202.552L202.752 97.76C203.059 97.1733 203.499 96.7067 204.072 96.36C204.659 96.0133 205.346 95.84 206.132 95.84C207.359 95.84 208.312 96.2267 208.992 97C209.672 97.7733 210.012 98.9067 210.012 100.4V106H207.452V100.64C207.452 99.7867 207.279 99.1333 206.932 98.68C206.586 98.2267 206.046 98 205.312 98C204.592 98 203.999 98.2533 203.532 98.76C203.079 99.2667 202.852 99.9733 202.852 100.88V106H200.292ZM212.46 106V91.6H215.02V106H212.46ZM219.016 94.54C218.549 94.54 218.163 94.4 217.856 94.12C217.563 93.84 217.416 93.4867 217.416 93.06C217.416 92.6333 217.563 92.2867 217.856 92.02C218.163 91.74 218.549 91.6 219.016 91.6C219.483 91.6 219.863 91.74 220.156 92.02C220.463 92.2867 220.616 92.6333 220.616 93.06C220.616 93.4867 220.463 93.84 220.156 94.12C219.863 94.4 219.483 94.54 219.016 94.54ZM217.736 106V96.08H220.296V106H217.736ZM222.968 106V96.08H225.228L225.428 97.76C225.735 97.1733 226.175 96.7067 226.748 96.36C227.335 96.0133 228.021 95.84 228.808 95.84C230.035 95.84 230.988 96.2267 231.668 97C232.348 97.7733 232.688 98.9067 232.688 100.4V106H230.128V100.64C230.128 99.7867 229.955 99.1333 229.608 98.68C229.261 98.2267 228.721 98 227.988 98C227.268 98 226.675 98.2533 226.208 98.76C225.755 99.2667 225.528 99.9733 225.528 100.88V106H222.968ZM239.956 106.24C238.956 106.24 238.069 106.027 237.296 105.6C236.523 105.173 235.916 104.573 235.476 103.8C235.036 103.027 234.816 102.133 234.816 101.12C234.816 100.093 235.029 99.18 235.456 98.38C235.896 97.58 236.496 96.96 237.256 96.52C238.029 96.0667 238.936 95.84 239.976 95.84C240.949 95.84 241.809 96.0533 242.556 96.48C243.303 96.9067 243.883 97.4933 244.296 98.24C244.723 98.9733 244.936 99.7933 244.936 100.7C244.936 100.847 244.929 101 244.916 101.16C244.916 101.32 244.909 101.487 244.896 101.66H237.356C237.409 102.433 237.676 103.04 238.156 103.48C238.649 103.92 239.243 104.14 239.936 104.14C240.456 104.14 240.889 104.027 241.236 103.8C241.596 103.56 241.863 103.253 242.036 102.88H244.636C244.449 103.507 244.136 104.08 243.696 104.6C243.269 105.107 242.736 105.507 242.096 105.8C241.469 106.093 240.756 106.24 239.956 106.24ZM239.976 97.92C239.349 97.92 238.796 98.1 238.316 98.46C237.836 98.8067 237.529 99.34 237.396 100.06H242.336C242.296 99.4067 242.056 98.8867 241.616 98.5C241.176 98.1133 240.629 97.92 239.976 97.92Z" fill="black"/>
<defs>
<clipPath id="clip0_164_146">
<rect width="92.8208" height="107.275" fill="white" transform="translate(0 5.3638)"/>
</clipPath>
</defs>
</svg>
