<svg width="77" height="74" viewBox="0 0 77 74" fill="none" xmlns="http://www.w3.org/2000/svg">
<g filter="url(#filter0_d_53_33)">
<rect x="4" width="69" height="66" rx="13" fill="white"/>
</g>
<path d="M27.75 29.25C29.3467 29.25 30.7822 28.5762 31.8076 27.5068C32.6865 30.6709 35.5576 33 39.0029 33C43.1484 33 46.4502 29.6455 46.4502 25.5C46.4502 21.3545 43.0957 18 39.0029 18C36.051 18 33.5168 19.7215 32.2939 22.2041C31.2715 20.7979 29.625 19.875 27.75 19.875C27.75 21.8303 28.7531 23.5518 30.2771 24.5625C28.7537 25.5762 27.75 27.293 27.75 29.25ZM36.1875 23.625H41.7598C42.8496 23.625 43.6875 24.4629 43.6875 25.5H34.3125C34.3125 24.4629 35.1504 23.625 36.1875 23.625ZM43.793 35.9824L39 42.375L34.207 35.9824C29.4703 36.8438 25.875 40.9805 25.875 45.9668C25.875 47.0883 26.7844 47.9982 27.9059 47.9982H50.0918C51.2133 47.9982 52.1227 47.0889 52.1227 45.9668C52.125 40.9805 48.5273 36.8438 43.793 35.9824Z" fill="url(#paint0_linear_53_33)"/>
<defs>
<filter id="filter0_d_53_33" x="0" y="0" width="77" height="74" filterUnits="userSpaceOnUse" color-interpolation-filters="sRGB">
<feFlood flood-opacity="0" result="BackgroundImageFix"/>
<feColorMatrix in="SourceAlpha" type="matrix" values="0 0 0 0 0 0 0 0 0 0 0 0 0 0 0 0 0 0 127 0" result="hardAlpha"/>
<feOffset dy="4"/>
<feGaussianBlur stdDeviation="2"/>
<feComposite in2="hardAlpha" operator="out"/>
<feColorMatrix type="matrix" values="0 0 0 0 0 0 0 0 0 0 0 0 0 0 0 0 0 0 0.25 0"/>
<feBlend mode="normal" in2="BackgroundImageFix" result="effect1_dropShadow_53_33"/>
<feBlend mode="normal" in="SourceGraphic" in2="effect1_dropShadow_53_33" result="shape"/>
</filter>
<linearGradient id="paint0_linear_53_33" x1="38.9988" y1="18" x2="38.9988" y2="47.9982" gradientUnits="userSpaceOnUse">
<stop stop-color="#FF3951" stop-opacity="0.94"/>
<stop offset="1" stop-color="#FF3951" stop-opacity="0.51"/>
</linearGradient>
</defs>
</svg>
