<svg width="173" height="60" viewBox="0 0 173 60" fill="none" xmlns="http://www.w3.org/2000/svg">
<path d="M16.1523 13.125H33.8477C37.832 13.125 41.377 15.6426 42.6953 19.4033L46.1328 29.2188C48.3984 30.1563 50 32.3926 50 35V42.8125C50 45.127 48.7402 47.1484 46.875 48.2227V53.75C46.875 55.4785 45.4785 56.875 43.75 56.875H40.625C38.8965 56.875 37.5 55.4785 37.5 53.75V49.0625H12.5V53.75C12.5 55.4785 11.1035 56.875 9.375 56.875H6.25C4.52441 56.875 3.125 55.4785 3.125 53.75V48.2227C1.25684 47.1484 0 45.127 0 42.8125V35C0 32.3926 1.59766 30.1563 3.86816 29.2188L7.30469 19.4033C8.62012 15.6426 12.168 13.125 16.1523 13.125ZM16.1523 19.375C14.8242 19.375 13.6426 20.2148 13.2031 21.4648L10.6543 28.75H39.3457L36.7969 21.4648C36.3574 20.2148 35.1758 19.375 33.8477 19.375H16.1523ZM20.3125 36.5625C19.4531 36.5625 18.75 37.2656 18.75 38.125V41.25C18.75 42.1094 19.4531 42.8125 20.3125 42.8125H29.6875C30.5469 42.8125 31.25 42.1094 31.25 41.25V38.125C31.25 37.2656 30.5469 36.5625 29.6875 36.5625H20.3125ZM7.03125 39.6875H10.1562C11.4551 39.6875 12.5 38.6426 12.5 37.3438C12.5 36.0449 11.4551 35 10.1562 35H7.03125C5.7373 35 4.6875 36.0449 4.6875 37.3438C4.6875 38.6426 5.7373 39.6875 7.03125 39.6875ZM39.8438 35C38.5449 35 37.5 36.0449 37.5 37.3438C37.5 38.6426 38.5449 39.6875 39.8438 39.6875H42.9688C44.2676 39.6875 45.3125 38.6426 45.3125 37.3438C45.3125 36.0449 44.2676 35 42.9688 35H39.8438Z" fill="#EB1D36"/>
<rect x="31.5404" width="28.6869" height="40" fill="#1A0000"/>
<path d="M42.32 39.384C40.0587 39.384 38.1173 38.904 36.496 37.944C34.8747 36.9627 33.6267 35.608 32.752 33.88C31.8773 32.1307 31.44 30.1147 31.44 27.832C31.44 25.5493 31.8773 23.5333 32.752 21.784C33.6267 20.0347 34.8747 18.6693 36.496 17.688C38.1173 16.7067 40.0587 16.216 42.32 16.216C45.008 16.216 47.2053 16.888 48.912 18.232C50.64 19.5547 51.7173 21.4213 52.144 23.832H47.632C47.3547 22.616 46.7573 21.6667 45.84 20.984C44.944 20.28 43.7493 19.928 42.256 19.928C40.1867 19.928 38.5653 20.632 37.392 22.04C36.2187 23.448 35.632 25.3787 35.632 27.832C35.632 30.2853 36.2187 32.216 37.392 33.624C38.5653 35.0107 40.1867 35.704 42.256 35.704C43.7493 35.704 44.944 35.384 45.84 34.744C46.7573 34.0827 47.3547 33.176 47.632 32.024H52.144C51.7173 34.328 50.64 36.1307 48.912 37.432C47.2053 38.7333 45.008 39.384 42.32 39.384ZM61.1458 39.384C59.7804 39.384 58.6604 39.1707 57.7858 38.744C56.9111 38.296 56.2604 37.7093 55.8338 36.984C55.4071 36.2587 55.1938 35.4587 55.1938 34.584C55.1938 33.112 55.7698 31.9173 56.9218 31C58.0738 30.0827 59.8018 29.624 62.1058 29.624H66.1378V29.24C66.1378 28.152 65.8284 27.352 65.2098 26.84C64.5911 26.328 63.8231 26.072 62.9058 26.072C62.0738 26.072 61.3484 26.2747 60.7298 26.68C60.1111 27.064 59.7271 27.64 59.5778 28.408H55.5778C55.6844 27.256 56.0684 26.2533 56.7298 25.4C57.4124 24.5467 58.2871 23.896 59.3538 23.448C60.4204 22.9787 61.6151 22.744 62.9378 22.744C65.1991 22.744 66.9804 23.3093 68.2818 24.44C69.5831 25.5707 70.2338 27.1707 70.2338 29.24V39H66.7458L66.3618 36.44C65.8924 37.2933 65.2311 37.9973 64.3778 38.552C63.5458 39.1067 62.4684 39.384 61.1458 39.384ZM62.0738 36.184C63.2471 36.184 64.1538 35.8 64.7938 35.032C65.4551 34.264 65.8711 33.3147 66.0418 32.184H62.5538C61.4658 32.184 60.6871 32.3867 60.2178 32.792C59.7484 33.176 59.5138 33.656 59.5138 34.232C59.5138 34.8507 59.7484 35.3307 60.2178 35.672C60.6871 36.0133 61.3058 36.184 62.0738 36.184ZM74.1425 39V23.128H77.7905L78.1745 26.104C78.7505 25.08 79.5292 24.2693 80.5105 23.672C81.5132 23.0533 82.6865 22.744 84.0305 22.744V27.064H82.8785C81.9825 27.064 81.1825 27.2027 80.4785 27.48C79.7745 27.7573 79.2198 28.2373 78.8145 28.92C78.4305 29.6027 78.2385 30.552 78.2385 31.768V39H74.1425ZM93.39 39.384C91.982 39.384 90.7447 39.16 89.678 38.712C88.6113 38.2427 87.758 37.6027 87.118 36.792C86.478 35.9813 86.094 35.0427 85.966 33.976H90.094C90.222 34.5947 90.5633 35.128 91.118 35.576C91.694 36.0027 92.43 36.216 93.326 36.216C94.222 36.216 94.8727 36.0347 95.278 35.672C95.7047 35.3093 95.918 34.8933 95.918 34.424C95.918 33.7413 95.6193 33.2827 95.022 33.048C94.4247 32.792 93.5927 32.5467 92.526 32.312C91.8433 32.1627 91.15 31.9813 90.446 31.768C89.742 31.5547 89.0913 31.288 88.494 30.968C87.918 30.6267 87.4487 30.2 87.086 29.688C86.7233 29.1547 86.542 28.504 86.542 27.736C86.542 26.328 87.0967 25.144 88.206 24.184C89.3367 23.224 90.9153 22.744 92.942 22.744C94.8193 22.744 96.3127 23.1813 97.422 24.056C98.5527 24.9307 99.2247 26.136 99.438 27.672H95.566C95.3313 26.4987 94.446 25.912 92.91 25.912C92.142 25.912 91.5447 26.0613 91.118 26.36C90.7127 26.6587 90.51 27.032 90.51 27.48C90.51 27.9493 90.8193 28.3227 91.438 28.6C92.0567 28.8773 92.878 29.1333 93.902 29.368C95.0113 29.624 96.0247 29.912 96.942 30.232C97.8807 30.5307 98.6273 30.9893 99.182 31.608C99.7367 32.2053 100.014 33.0693 100.014 34.2C100.035 35.1813 99.7793 36.0667 99.246 36.856C98.7127 37.6453 97.9447 38.264 96.942 38.712C95.9393 39.16 94.7553 39.384 93.39 39.384ZM111.355 39.384C109.755 39.384 108.336 39.0427 107.099 38.36C105.861 37.6773 104.891 36.7173 104.187 35.48C103.483 34.2427 103.131 32.8133 103.131 31.192C103.131 29.5493 103.472 28.088 104.155 26.808C104.859 25.528 105.819 24.536 107.035 23.832C108.272 23.1067 109.723 22.744 111.387 22.744C112.944 22.744 114.32 23.0853 115.515 23.768C116.709 24.4507 117.637 25.3893 118.299 26.584C118.981 27.7573 119.323 29.0693 119.323 30.52C119.323 30.7547 119.312 31 119.291 31.256C119.291 31.512 119.28 31.7787 119.259 32.056H107.195C107.28 33.2933 107.707 34.264 108.475 34.968C109.264 35.672 110.213 36.024 111.323 36.024C112.155 36.024 112.848 35.8427 113.403 35.48C113.979 35.096 114.405 34.6053 114.683 34.008H118.843C118.544 35.0107 118.043 35.928 117.339 36.76C116.656 37.5707 115.803 38.2107 114.779 38.68C113.776 39.1493 112.635 39.384 111.355 39.384ZM111.387 26.072C110.384 26.072 109.499 26.36 108.731 26.936C107.963 27.4907 107.472 28.344 107.259 29.496H115.163C115.099 28.4507 114.715 27.6187 114.011 27C113.307 26.3813 112.432 26.072 111.387 26.072ZM125.247 39L120.607 23.128H124.671L127.423 34.552L130.623 23.128H135.167L138.367 34.552L141.151 23.128H145.215L140.543 39H136.287L132.895 27.128L129.503 39H125.247ZM152.458 39.384C151.093 39.384 149.973 39.1707 149.098 38.744C148.224 38.296 147.573 37.7093 147.146 36.984C146.72 36.2587 146.506 35.4587 146.506 34.584C146.506 33.112 147.082 31.9173 148.234 31C149.386 30.0827 151.114 29.624 153.418 29.624H157.45V29.24C157.45 28.152 157.141 27.352 156.522 26.84C155.904 26.328 155.136 26.072 154.218 26.072C153.386 26.072 152.661 26.2747 152.042 26.68C151.424 27.064 151.04 27.64 150.89 28.408H146.89C146.997 27.256 147.381 26.2533 148.042 25.4C148.725 24.5467 149.6 23.896 150.666 23.448C151.733 22.9787 152.928 22.744 154.25 22.744C156.512 22.744 158.293 23.3093 159.594 24.44C160.896 25.5707 161.546 27.1707 161.546 29.24V39H158.058L157.674 36.44C157.205 37.2933 156.544 37.9973 155.69 38.552C154.858 39.1067 153.781 39.384 152.458 39.384ZM153.386 36.184C154.56 36.184 155.466 35.8 156.106 35.032C156.768 34.264 157.184 33.3147 157.354 32.184H153.866C152.778 32.184 152 32.3867 151.53 32.792C151.061 33.176 150.826 33.656 150.826 34.232C150.826 34.8507 151.061 35.3307 151.53 35.672C152 36.0133 152.618 36.184 153.386 36.184Z" fill="white"/>
</svg>
