<svg width="59" height="43" viewBox="0 0 59 43" fill="none" xmlns="http://www.w3.org/2000/svg">
<path d="M13.2389 0.285736H27.7424C31.0081 0.285736 33.9136 2.20389 34.9942 5.06922L37.8116 12.5476C39.6686 13.2619 40.9813 14.9658 40.9813 16.9524V22.9048C40.9813 24.6682 39.9487 26.2084 38.4199 27.0268V31.2381C38.4199 32.5551 37.2753 33.6191 35.8586 33.6191H33.2973C31.8805 33.6191 30.7359 32.5551 30.7359 31.2381V27.6667H10.2453V31.2381C10.2453 32.5551 9.10072 33.6191 7.68399 33.6191H5.12266C3.70832 33.6191 2.56133 32.5551 2.56133 31.2381V27.0268C1.03013 26.2084 0 24.6682 0 22.9048V16.9524C0 14.9658 1.30948 13.2619 3.17044 12.5476L5.98711 5.06922C7.06527 2.20389 9.97317 0.285736 13.2389 0.285736ZM13.2389 5.04764C12.1503 5.04764 11.1818 5.68752 10.8216 6.6399L8.73253 12.1905H32.2487L30.1596 6.6399C29.7995 5.68752 28.831 5.04764 27.7424 5.04764H13.2389ZM16.6486 18.1429C15.9443 18.1429 15.368 18.6786 15.368 19.3334V21.7143C15.368 22.3691 15.9443 22.9048 16.6486 22.9048H24.3326C25.037 22.9048 25.6133 22.3691 25.6133 21.7143V19.3334C25.6133 18.6786 25.037 18.1429 24.3326 18.1429H16.6486ZM5.76299 20.5238H8.32432C9.38887 20.5238 10.2453 19.7277 10.2453 18.7381C10.2453 17.7485 9.38887 16.9524 8.32432 16.9524H5.76299C4.70244 16.9524 3.84199 17.7485 3.84199 18.7381C3.84199 19.7277 4.70244 20.5238 5.76299 20.5238ZM32.6569 16.9524C31.5924 16.9524 30.7359 17.7485 30.7359 18.7381C30.7359 19.7277 31.5924 20.5238 32.6569 20.5238H35.2183C36.2828 20.5238 37.1393 19.7277 37.1393 18.7381C37.1393 17.7485 36.2828 16.9524 35.2183 16.9524H32.6569Z" fill="black"/>
<g filter="url(#filter0_d_45_89)">
<ellipse cx="37.5" cy="18" rx="17.5" ry="17" fill="url(#paint0_linear_45_89)" shape-rendering="crispEdges"/>
</g>
<path d="M30.8317 16.1326C30.3946 14.7885 30.3047 13.5419 30.562 12.3927C30.8319 11.2393 31.3959 10.2357 32.2539 9.38191C33.1246 8.52395 34.2383 7.87438 35.5951 7.43322C36.9518 6.99205 38.2346 6.86236 39.4434 7.04414C40.6521 7.22593 41.7049 7.70382 42.6015 8.47783C43.4981 9.25184 44.1649 10.3109 44.602 11.6549C45.1215 13.2526 45.1467 14.6885 44.6778 15.9626C44.2256 17.2453 43.3243 18.2464 41.9739 18.9659L41.1019 16.2841C41.7711 15.8843 42.2199 15.3458 42.4483 14.6686C42.6936 14 42.6719 13.2219 42.3833 12.3343C41.9834 11.1044 41.2516 10.2768 40.188 9.85149C39.1243 9.42622 37.8634 9.45066 36.4052 9.92481C34.947 10.399 33.9129 11.1208 33.3028 12.0903C32.7054 13.0557 32.6066 14.1534 33.0066 15.3833C33.2952 16.2709 33.7163 16.9191 34.2698 17.328C34.8402 17.7454 35.4945 17.9252 36.2329 17.8674L37.1049 20.5492C35.653 20.7409 34.3733 20.4489 33.2659 19.6734C32.1626 18.9105 31.3512 17.7302 30.8317 16.1326Z" fill="black"/>
<defs>
<filter id="filter0_d_45_89" x="16" y="1" width="43" height="42" filterUnits="userSpaceOnUse" color-interpolation-filters="sRGB">
<feFlood flood-opacity="0" result="BackgroundImageFix"/>
<feColorMatrix in="SourceAlpha" type="matrix" values="0 0 0 0 0 0 0 0 0 0 0 0 0 0 0 0 0 0 127 0" result="hardAlpha"/>
<feOffset dy="4"/>
<feGaussianBlur stdDeviation="2"/>
<feComposite in2="hardAlpha" operator="out"/>
<feColorMatrix type="matrix" values="0 0 0 0 0 0 0 0 0 0 0 0 0 0 0 0 0 0 0.25 0"/>
<feBlend mode="normal" in2="BackgroundImageFix" result="effect1_dropShadow_45_89"/>
<feBlend mode="normal" in="SourceGraphic" in2="effect1_dropShadow_45_89" result="shape"/>
</filter>
<linearGradient id="paint0_linear_45_89" x1="37.5" y1="1" x2="37.5" y2="35" gradientUnits="userSpaceOnUse">
<stop offset="0.541667" stop-color="#EB1D36"/>
<stop offset="0.9999" stop-color="#EB421D" stop-opacity="0.67"/>
<stop offset="1" stop-color="#EB1D36" stop-opacity="0.65"/>
</linearGradient>
</defs>
</svg>
