<?xml version="1.0" encoding="UTF-8"?>
<!DOCTYPE svg PUBLIC "-//W3C//DTD SVG 1.1//EN" "http://www.w3.org/Graphics/SVG/1.1/DTD/svg11.dtd">
<!-- Creator: CorelDRAW 2019 (64-Bit) -->
<svg xmlns="http://www.w3.org/2000/svg" xml:space="preserve" width="991px" height="240px" version="1.1" style="shape-rendering:geometricPrecision; text-rendering:geometricPrecision; image-rendering:optimizeQuality; fill-rule:evenodd; clip-rule:evenodd"
viewBox="0 0 991 240.1"
 xmlns:xlink="http://www.w3.org/1999/xlink"
 xmlns:xodm="http://www.corel.com/coreldraw/odm/2003">
 <defs>
  <style type="text/css">
   <![CDATA[
    .fil0 {fill:#00A2E9}
    .fil1 {fill:#18438E}
    .fil2 {fill:#1F387C}
   ]]>
  </style>
 </defs>
 <g id="Layer_x0020_1">
  <metadata id="CorelCorpID_0Corel-Layer"/>
  <path class="fil0" d="M86.47 56.51l67.72 0c36.36,0 50.05,18.4 47.94,45.49 -3.49,44.65 -30.48,69.34 -66.29,69.34l-18.08 0c-4.91,0 -8.21,3.24 -9.54,12.06l-7.76 51.18c-0.5,3.33 -2.25,5.28 -4.88,5.52l-42.46 0c-4,0 -5.42,-3.06 -4.38,-9.68l25.94 -164.2c1.04,-6.58 4.64,-9.71 11.79,-9.71z"/>
  <path class="fil1" d="M380.47 53.47c22.85,0 43.93,12.39 41.04,43.29 -3.42,36.63 -23.16,57.03 -54.2,57.11l-27.09 0c-3.9,0 -5.78,3.17 -6.81,9.71l-5.22 33.34c-0.79,5.03 -3.37,7.51 -7.19,7.51l-25.23 0c-4.02,0 -5.42,-2.57 -4.53,-8.32l20.85 -133.62c1.03,-6.57 3.54,-9.02 8,-9.02l60.38 0zm-41.09 71.53l0 0 20.55 0.01c12.84,-0.49 21.38,-9.38 22.24,-25.44 0.53,-9.91 -6.16,-17 -16.82,-16.95l-19.34 0.09 -6.63 42.29zm150.7 69.19l0 0c2.3,-2.09 4.65,-3.19 4.31,-0.6l-0.82 6.19c-0.42,3.23 0.86,4.95 3.87,4.95l22.41 0c3.77,0 5.61,-1.52 6.54,-7.36l13.81 -86.67c0.69,-4.35 -0.36,-6.49 -3.67,-6.49l-24.63 0c-2.23,0 -3.3,1.25 -3.88,4.64l-0.92 5.34c-0.48,2.78 -1.75,3.26 -2.93,0.46 -4.19,-9.9 -14.85,-14.34 -29.8,-14.03 -34.56,0.71 -57.87,26.95 -60.36,60.58 -1.93,26.02 16.72,46.45 41.29,46.45 17.82,0 25.8,-5.31 34.78,-13.46zm-18.75 -13.31l0 0c-14.88,0 -25.25,-11.87 -23.09,-26.42 2.17,-14.55 16.07,-26.41 30.95,-26.41 14.87,0 25.24,11.86 23.08,26.41 -2.17,14.55 -16.06,26.42 -30.94,26.42zm112.75 -76.95l0 0 -22.64 0c-4.69,0 -6.6,3.44 -5.1,7.8l28.21 82.62 -27.8 39.3c-2.32,3.27 -0.53,6.27 2.74,6.27l25.54 0c3.82,0 5.68,-0.97 7.59,-3.72l86.77 -124.47c2.67,-3.83 1.41,-7.84 -2.97,-7.85l-24.15 -0.02c-4.14,-0.01 -5.81,1.63 -8.19,5.08l-36.19 52.51 -16.1 -52.6c-0.99,-3.24 -3.36,-4.92 -7.71,-4.92z"/>
  <path class="fil0" d="M769.69 53.47c22.85,0 43.93,12.39 41.05,43.29 -3.42,36.63 -23.16,57.03 -54.21,57.11l-27.09 0c-3.9,0 -5.78,3.17 -6.8,9.71l-5.23 33.34c-0.79,5.03 -3.36,7.51 -7.19,7.51l-25.22 0c-4.02,0 -5.43,-2.57 -4.53,-8.32l20.85 -133.62c1.02,-6.57 3.54,-9.02 7.99,-9.02l60.38 0zm-41.09 71.53l0 0 20.55 0.01c12.84,-0.49 21.38,-9.38 22.24,-25.44 0.53,-9.91 -6.16,-17 -16.82,-16.95l-19.34 0.09 -6.63 42.29zm150.7 69.19l0 0c2.31,-2.09 4.66,-3.19 4.32,-0.6l-0.82 6.19c-0.43,3.23 0.86,4.95 3.87,4.95l22.4 0c3.77,0 5.62,-1.52 6.55,-7.36l13.8 -86.67c0.7,-4.35 -0.36,-6.49 -3.66,-6.49l-24.64 0c-2.22,0 -3.3,1.25 -3.88,4.64l-0.91 5.34c-0.48,2.78 -1.75,3.26 -2.94,0.46 -4.18,-9.9 -14.84,-14.34 -29.8,-14.03 -34.56,0.71 -57.86,26.95 -60.35,60.58 -1.93,26.02 16.72,46.45 41.28,46.45 17.83,0 25.8,-5.31 34.78,-13.46zm-18.75 -13.31l0 0c-14.88,0 -25.25,-11.87 -23.08,-26.42 2.16,-14.55 16.06,-26.41 30.94,-26.41 14.88,0 25.25,11.86 23.08,26.41 -2.16,14.55 -16.06,26.42 -30.94,26.42zm103.36 24.01l0 0 -25.86 0c-2.06,0 -3.48,-1.61 -3.17,-3.58l22.74 -143.96c0.31,-1.96 2.25,-3.57 4.3,-3.57l25.87 0c2.05,0 3.48,1.61 3.17,3.57l-22.75 143.96c-0.31,1.97 -2.24,3.58 -4.3,3.58z"/>
  <path class="fil1" d="M44.13 0l67.79 0c19.09,0 41.74,0.62 56.89,13.98 10.12,8.93 15.43,23.15 14.2,38.41 -4.15,51.77 -35.12,80.76 -76.64,80.76l-33.44 0c-5.69,0 -9.46,3.77 -11.06,13.98l-9.33 59.36c-0.61,3.85 -2.28,6.12 -5.33,6.39l-41.76 0c-4.63,0 -6.28,-3.54 -5.07,-11.22l30.08 -190.4c1.2,-7.63 5.37,-11.26 13.67,-11.26z"/>
  <path class="fil2" d="M62.84 141.15l11.84 -74.93c1.04,-6.58 4.64,-9.71 11.79,-9.71l67.72 0c11.21,0 20.27,1.75 27.37,4.97 -6.8,46.07 -36.6,71.67 -75.62,71.67l-33.44 0c-4.4,0 -7.69,2.25 -9.66,8z"/>
 </g>
</svg>
