<svg width="226" height="270" viewBox="0 0 226 270" fill="none" xmlns="http://www.w3.org/2000/svg">
<g filter="url(#filter0_d_46_100)">
<rect x="19" y="20" width="200" height="200" rx="18" fill="url(#paint0_linear_46_100)" shape-rendering="crispEdges"/>
</g>
<rect x="106" y="121" width="27" height="16" fill="#EB1D36"/>
<path d="M111.857 98.125V101.25H126.143V98.125C126.143 96.3994 127.739 95 129.714 95C131.69 95 133.286 96.3994 133.286 98.125V101.25H138.643C141.6 101.25 144 103.349 144 105.938V110.625H94V105.938C94 103.349 96.3984 101.25 99.3571 101.25H104.714V98.125C104.714 96.3994 106.31 95 108.286 95C110.261 95 111.857 96.3994 111.857 98.125ZM94 113.75H144V140.312C144 142.9 141.6 145 138.643 145H99.3571C96.3984 145 94 142.9 94 140.312V113.75ZM130.618 124.697C131.757 123.867 131.757 122.383 130.618 121.465C129.67 120.557 127.973 120.557 126.924 121.465L116.321 130.752L110.975 126.152C110.027 125.244 108.33 125.244 107.281 126.152C106.243 127.07 106.243 128.555 107.281 129.385L114.424 135.635C115.473 136.631 117.17 136.631 118.118 135.635L130.618 124.697Z" fill="white"/>
<g filter="url(#filter1_f_46_100)">
<ellipse cx="110.5" cy="134.608" rx="28.5" ry="52.608" fill="white"/>
</g>
<defs>
<filter id="filter0_d_46_100" x="12" y="14" width="214" height="214" filterUnits="userSpaceOnUse" color-interpolation-filters="sRGB">
<feFlood flood-opacity="0" result="BackgroundImageFix"/>
<feColorMatrix in="SourceAlpha" type="matrix" values="0 0 0 0 0 0 0 0 0 0 0 0 0 0 0 0 0 0 127 0" result="hardAlpha"/>
<feMorphology radius="2" operator="erode" in="SourceAlpha" result="effect1_dropShadow_46_100"/>
<feOffset dy="1"/>
<feGaussianBlur stdDeviation="4.5"/>
<feComposite in2="hardAlpha" operator="out"/>
<feColorMatrix type="matrix" values="0 0 0 0 1 0 0 0 0 0.225 0 0 0 0 0.319054 0 0 0 0.31 0"/>
<feBlend mode="normal" in2="BackgroundImageFix" result="effect1_dropShadow_46_100"/>
<feBlend mode="normal" in="SourceGraphic" in2="effect1_dropShadow_46_100" result="shape"/>
</filter>
<filter id="filter1_f_46_100" x="0" y="0" width="221" height="269.216" filterUnits="userSpaceOnUse" color-interpolation-filters="sRGB">
<feFlood flood-opacity="0" result="BackgroundImageFix"/>
<feBlend mode="normal" in="SourceGraphic" in2="BackgroundImageFix" result="shape"/>
<feGaussianBlur stdDeviation="41" result="effect1_foregroundBlur_46_100"/>
</filter>
<linearGradient id="paint0_linear_46_100" x1="119" y1="20" x2="119" y2="220" gradientUnits="userSpaceOnUse">
<stop stop-color="#EB1D36" stop-opacity="0.87"/>
<stop offset="0.489583" stop-color="#FF3951" stop-opacity="0.94"/>
<stop offset="1" stop-color="#EB1D36" stop-opacity="0.87"/>
</linearGradient>
</defs>
</svg>
